<?xml version="1.0" encoding="UTF-8" standalone="no"?>
<!-- Created with Inkscape (http://www.inkscape.org/) -->

<svg
   xmlns:dc="http://purl.org/dc/elements/1.1/"
   xmlns:cc="http://creativecommons.org/ns#"
   xmlns:rdf="http://www.w3.org/1999/02/22-rdf-syntax-ns#"
   xmlns:svg="http://www.w3.org/2000/svg"
   xmlns="http://www.w3.org/2000/svg"
   xmlns:sodipodi="http://sodipodi.sourceforge.net/DTD/sodipodi-0.dtd"
   xmlns:inkscape="http://www.inkscape.org/namespaces/inkscape"
   width="203.76656mm"
   height="74.894646mm"
   viewBox="0 0 722.00748 265.37472"
   id="svg2"
   version="1.1"
   inkscape:version="0.91 r13725"
   sodipodi:docname="IncludeOS_logo.svg">
  <defs
     id="defs4" />
  <sodipodi:namedview
     id="base"
     pagecolor="#ffffff"
     bordercolor="#666666"
     borderopacity="1.0"
     inkscape:pageopacity="0.0"
     inkscape:pageshadow="2"
     inkscape:zoom="1.4142136"
     inkscape:cx="17.289463"
     inkscape:cy="97.076598"
     inkscape:document-units="px"
     inkscape:current-layer="layer1"
     showgrid="false"
     showguides="true"
     inkscape:guide-bbox="true"
     inkscape:window-width="1618"
     inkscape:window-height="1154"
     inkscape:window-x="944"
     inkscape:window-y="341"
     inkscape:window-maximized="0"
     showborder="true"
     fit-margin-top="10"
     fit-margin-left="0"
     fit-margin-right="10"
     fit-margin-bottom="10">
    <sodipodi:guide
       position="-300.1256,564.99688"
       orientation="1,0"
       id="guide3356" />
    <sodipodi:guide
       position="802.54103,582.33017"
       orientation="1,0"
       id="guide3358" />
  </sodipodi:namedview>
  <metadata
     id="metadata7">
    <rdf:RDF>
      <cc:Work
         rdf:about="">
        <dc:format>image/svg+xml</dc:format>
        <dc:type
           rdf:resource="http://purl.org/dc/dcmitype/StillImage" />
        <dc:title></dc:title>
      </cc:Work>
    </rdf:RDF>
  </metadata>
  <g
     inkscape:label="Layer 1"
     inkscape:groupmode="layer"
     id="layer1"
     transform="translate(-30.792274,-221.31771)">
    <g
       transform="scale(1.0219918,0.97848143)"
       style="font-style:normal;font-weight:normal;font-size:146.82572937px;line-height:125%;font-family:sans-serif;letter-spacing:0px;word-spacing:0px;fill:#000000;fill-opacity:1;stroke:none;stroke-width:1px;stroke-linecap:butt;stroke-linejoin:miter;stroke-opacity:1"
       id="text3336">
      <path
         d="m 31.528228,274.58372 18.500041,0 0,101.75023 -18.500041,0 0,-101.75023 z"
         style="font-style:normal;font-variant:normal;font-weight:500;font-stretch:normal;font-family:Ubuntu;-inkscape-font-specification:'Ubuntu Medium'"
         id="path3360"
         inkscape:connector-curvature="0" />
      <path
         d="m 73.375854,302.04013 q 5.1389,-1.46825 13.361141,-2.78968 8.222241,-1.32144 18.206395,-1.32144 9.39684,0 15.71035,2.64287 6.3135,2.49603 9.98415,7.19446 3.81747,4.5516 5.28572,11.15875 1.61509,6.46034 1.61509,14.2421 l 0,43.16676 -17.76592,0 0,-40.37707 q 0,-6.16668 -0.88095,-10.42463 -0.73413,-4.40477 -2.64286,-7.04763 -1.76191,-2.78969 -4.99208,-3.9643 -3.08334,-1.32143 -7.63494,-1.32143 -3.37699,0 -7.047631,0.44048 -3.670643,0.44047 -5.432552,0.73413 l 0,61.96045 -17.765913,0 0,-74.29382 z"
         style="font-style:normal;font-variant:normal;font-weight:500;font-stretch:normal;font-family:Ubuntu;-inkscape-font-specification:'Ubuntu Medium'"
         id="path3362"
         inkscape:connector-curvature="0" />
      <path
         d="m 154.86185,338.01244 q 0,-8.51589 2.64286,-15.85718 2.64286,-7.48811 7.48811,-12.92066 4.99208,-5.43256 12.03971,-8.5159 7.04764,-3.08334 15.85718,-3.08334 10.8651,0 20.5556,3.9643 l -3.81747,14.53574 q -3.08334,-1.32143 -7.04763,-2.20238 -3.81747,-0.88096 -8.22224,-0.88096 -10.42463,0 -15.85718,6.60716 -5.43255,6.46033 -5.43255,18.35322 0,11.45241 5.1389,18.20639 5.1389,6.60716 17.32543,6.60716 4.5516,0 8.95637,-0.88096 4.40477,-0.88095 7.63494,-2.20238 l 2.49604,14.68257 q -2.93652,1.46826 -8.95637,2.64286 -5.87303,1.17461 -12.18654,1.17461 -9.83732,0 -17.17861,-2.93652 -7.19446,-3.08334 -12.03971,-8.36906 -4.69842,-5.43255 -7.04763,-12.77384 -2.34921,-7.48811 -2.34921,-16.15083 z"
         style="font-style:normal;font-variant:normal;font-weight:500;font-stretch:normal;font-family:Ubuntu;-inkscape-font-specification:'Ubuntu Medium'"
         id="path3364"
         inkscape:connector-curvature="0" />
      <path
         d="m 255.24018,377.80221 q -7.92859,-0.14682 -13.21432,-1.76191 -5.1389,-1.61508 -8.22224,-4.5516 -3.08334,-3.08334 -4.40477,-7.48811 -1.17461,-4.5516 -1.17461,-10.2778 l 0,-88.38909 17.76592,-2.93651 0,87.94861 q 0,3.23017 0.44047,5.43255 0.58731,2.20239 1.90874,3.81747 1.32143,1.46826 3.52381,2.34921 2.34922,0.73413 5.87303,1.17461 l -2.49603,14.68257 z"
         style="font-style:normal;font-variant:normal;font-weight:500;font-stretch:normal;font-family:Ubuntu;-inkscape-font-specification:'Ubuntu Medium'"
         id="path3366"
         inkscape:connector-curvature="0" />
      <path
         d="m 335.09501,373.98474 q -5.1389,1.32143 -13.36114,2.64287 -8.22224,1.46825 -18.05956,1.46825 -9.25002,0 -15.56353,-2.64286 -6.16668,-2.64286 -9.98415,-7.34129 -3.67064,-4.69842 -5.28573,-11.15875 -1.61508,-6.60716 -1.61508,-14.38892 l 0,-43.01994 17.76592,0 0,40.23025 q 0,12.33336 3.52381,17.61908 3.67065,5.28573 12.62702,5.28573 3.23016,0 6.75398,-0.29365 3.67064,-0.29365 5.43255,-0.73413 l 0,-62.10728 17.76591,0 0,74.44064 z"
         style="font-style:normal;font-variant:normal;font-weight:500;font-stretch:normal;font-family:Ubuntu;-inkscape-font-specification:'Ubuntu Medium'"
         id="path3368"
         inkscape:connector-curvature="0" />
      <path
         d="m 371.51237,337.71879 q 0,11.74606 5.57938,18.50004 5.57938,6.60716 15.4167,6.60716 4.25795,0 7.19446,-0.29365 3.08334,-0.44048 4.99208,-0.88096 l 0,-44.04772 q -2.34921,-1.61508 -6.31351,-2.93651 -3.81747,-1.46826 -8.22224,-1.46826 -9.6905,0 -14.24209,6.60716 -4.40478,6.60716 -4.40478,17.91274 z m 50.94853,36.26595 q -5.28572,1.61509 -13.36114,2.93652 -7.92859,1.32143 -16.73813,1.32143 -9.1032,0 -16.29766,-2.78969 -7.19446,-2.78969 -12.33336,-7.92859 -4.99207,-5.28573 -7.78176,-12.62701 -2.64287,-7.48811 -2.64287,-16.73814 0,-9.10319 2.20239,-16.44448 2.34921,-7.48811 6.75398,-12.77384 4.40477,-5.28572 10.71828,-8.07541 6.31351,-2.93652 14.53575,-2.93652 5.57938,0 9.83732,1.32144 4.25795,1.32143 7.34129,2.93651 l 0,-36.85326 17.76591,-2.93651 0,111.58755 z"
         style="font-style:normal;font-variant:normal;font-weight:500;font-stretch:normal;font-family:Ubuntu;-inkscape-font-specification:'Ubuntu Medium'"
         id="path3370"
         inkscape:connector-curvature="0" />
      <path
         d="m 440.77055,338.30609 q 0,-10.13098 2.93652,-17.76591 3.08334,-7.63494 8.07541,-12.62702 4.99208,-5.1389 11.45241,-7.63493 6.46033,-2.64287 13.21431,-2.64287 15.85718,0 24.66673,9.83733 8.95637,9.83732 8.95637,29.36514 0,1.46826 -0.14683,3.37699 0,1.76191 -0.14682,3.23017 l -50.65488,0 q 0.73413,9.25002 6.46033,14.38892 5.87303,4.99208 16.88496,4.99208 6.46033,0 11.74606,-1.17461 5.43255,-1.1746 8.51589,-2.49604 l 2.34921,14.53575 q -1.46826,0.73413 -4.11112,1.61508 -2.49604,0.73413 -5.87303,1.32144 -3.23016,0.73412 -7.04763,1.1746 -3.81747,0.44048 -7.78177,0.44048 -10.13097,0 -17.61908,-2.93652 -7.48812,-3.08334 -12.33337,-8.36906 -4.84524,-5.43255 -7.19446,-12.62702 -2.34921,-7.34128 -2.34921,-16.004 z m 51.53583,-7.92859 q 0,-3.67064 -1.02778,-6.90081 -1.02778,-3.37699 -3.08334,-5.7262 -1.90873,-2.49604 -4.84525,-3.81747 -2.78968,-1.46826 -6.75398,-1.46826 -4.11112,0 -7.19446,1.61508 -3.08334,1.46826 -5.28573,3.9643 -2.05556,2.49604 -3.23016,5.7262 -1.17461,3.23017 -1.61509,6.60716 l 33.03579,0 z"
         style="font-style:normal;font-variant:normal;font-weight:500;font-stretch:normal;font-family:Ubuntu;-inkscape-font-specification:'Ubuntu Medium'"
         id="path3372"
         inkscape:connector-curvature="0" />
      <path
         d="m 621.99938,325.38543 q 0,13.06749 -3.81747,23.05164 -3.81747,9.98414 -10.42463,16.73813 -6.46033,6.60716 -15.12305,9.98415 -8.66272,3.37699 -18.35321,3.37699 -9.6905,0 -18.35322,-3.37699 -8.66272,-3.37699 -15.26988,-9.98415 -6.46033,-6.75399 -10.2778,-16.73813 -3.81747,-9.98415 -3.81747,-23.05164 0,-13.06749 3.81747,-22.90482 3.81747,-9.98415 10.2778,-16.59131 6.60716,-6.75398 15.26988,-10.13097 8.66272,-3.37699 18.35322,-3.37699 9.69049,0 18.35321,3.37699 8.66272,3.37699 15.12305,10.13097 6.60716,6.60716 10.42463,16.59131 3.81747,9.83733 3.81747,22.90482 z m -10.57145,0 q 0,-10.27781 -2.64287,-18.35322 -2.64286,-8.22224 -7.48811,-13.94844 -4.84525,-5.72621 -11.74606,-8.66272 -6.75398,-3.08334 -15.26987,-3.08334 -8.5159,0 -15.41671,3.08334 -6.75398,2.93651 -11.59923,8.66272 -4.84525,5.7262 -7.48811,13.94844 -2.64286,8.07541 -2.64286,18.35322 0,10.2778 2.64286,18.50004 2.64286,8.07541 7.48811,13.80162 4.84525,5.7262 11.59923,8.80954 6.90081,3.08334 15.41671,3.08334 8.51589,0 15.26987,-3.08334 6.90081,-3.08334 11.74606,-8.80954 4.84525,-5.72621 7.48811,-13.80162 2.64287,-8.22224 2.64287,-18.50004 z"
         style="font-style:normal;font-variant:normal;font-weight:300;font-stretch:normal;font-family:Ubuntu;-inkscape-font-specification:'Ubuntu Light'"
         id="path3374"
         inkscape:connector-curvature="0" />
      <path
         d="m 666.39813,369.87362 q 11.89288,0 18.50004,-4.25794 6.60716,-4.40478 6.60716,-14.09527 0,-5.57938 -2.20239,-9.25003 -2.05556,-3.81746 -5.57937,-6.3135 -3.52382,-2.64286 -8.07542,-4.40477 -4.5516,-1.90874 -9.54367,-3.9643 -6.31351,-2.49604 -11.30558,-5.1389 -4.99208,-2.64286 -8.5159,-5.87303 -3.52381,-3.37699 -5.43255,-7.63494 -1.76191,-4.25794 -1.76191,-9.98415 0,-13.06749 8.66272,-19.82147 8.66272,-6.75398 24.07942,-6.75398 4.11112,0 8.07542,0.5873 3.96429,0.5873 7.34128,1.61508 3.52382,0.88096 6.31351,2.05556 2.93651,1.17461 4.84525,2.49604 l -3.52382,8.36907 q -4.25795,-2.93652 -10.42463,-4.69843 -6.01985,-1.7619 -13.06749,-1.7619 -4.84525,0 -8.95637,1.02778 -3.96429,0.88095 -6.9008,3.08334 -2.93652,2.05556 -4.69843,5.28572 -1.61508,3.23017 -1.61508,7.78177 0,4.69842 1.76191,7.92859 1.76191,3.23016 4.84525,5.57937 3.23016,2.34921 7.48811,4.25795 4.25795,1.90873 9.25002,3.96429 6.01985,2.49604 11.30558,4.99208 5.43255,2.49604 9.39685,5.87303 3.96429,3.37699 6.3135,8.22224 2.34922,4.84525 2.34922,11.89288 0,13.80162 -9.6905,20.70243 -9.54367,6.90081 -25.98816,6.90081 -5.87303,0 -10.71827,-0.73413 -4.84525,-0.73413 -8.66272,-1.76191 -3.81747,-1.1746 -6.46033,-2.34921 -2.64287,-1.17461 -4.11113,-2.05556 l 3.23017,-8.66272 q 1.46826,0.88096 3.9643,2.05556 2.49603,1.17461 5.87302,2.34921 3.377,1.02778 7.63494,1.76191 4.25795,0.73413 9.39685,0.73413 z"
         style="font-style:normal;font-variant:normal;font-weight:300;font-stretch:normal;font-family:Ubuntu;-inkscape-font-specification:'Ubuntu Light'"
         id="path3376"
         inkscape:connector-curvature="0" />
    </g>
    <g
       style="font-style:normal;font-weight:normal;font-size:44.05125046px;line-height:125%;font-family:sans-serif;letter-spacing:0px;word-spacing:0px;fill:#000000;fill-opacity:1;stroke:none;stroke-width:1px;stroke-linecap:butt;stroke-linejoin:miter;stroke-opacity:1"
       id="text3352">
      <path
         d="m 30.792274,432.22355 0,-3.01131 4.215842,0 2.366034,-8.84037 -6.581876,0 0,-2.9898 7.334705,0 2.5166,-9.52867 3.140372,0 -2.5166,9.52867 6.08716,0 2.624147,-9.52867 3.140372,0 -2.581128,9.52867 3.61358,0 0,2.9898 -4.452446,0 -2.344525,8.84037 6.796971,0 0,3.01131 -7.635837,0 -2.452072,9.01244 -3.183391,0 2.49509,-9.01244 -6.001122,0 -2.366034,9.01244 -3.183391,0 2.387543,-9.01244 -3.419994,0 z m 7.377724,-3.01131 6.022632,0 2.430562,-8.84037 -6.151689,0 -2.301505,8.84037 z"
         style="fill:#241c1c"
         id="path3379"
         inkscape:connector-curvature="0" />
      <path
         d="m 65.831086,441.23599 0,-20.69204 -6.667914,0 0,-3.33396 10.668662,0 0,20.69205 6.689423,0 0,3.33395 -10.690171,0 z M 65.164294,408.5417 q 0,-1.35509 0.924904,-2.02188 0.924905,-0.66679 1.742262,-0.66679 0.838866,0 1.763771,0.66679 0.924904,0.66679 0.924904,2.02188 0,1.33359 -0.924904,2.00038 -0.924905,0.66679 -1.763771,0.66679 -0.817357,0 -1.742262,-0.66679 -0.924904,-0.66679 -0.924904,-2.00038 z"
         style="fill:#241c1c"
         id="path3381"
         inkscape:connector-curvature="0" />
      <path
         d="m 85.512187,441.23599 0,-24.026 4.000749,0 0,5.2483 q 1.720752,-2.77472 4.151314,-4.3449 2.430562,-1.57019 4.861124,-1.57019 2.129426,0 3.871696,1.14 1.74226,1.11849 2.43056,2.94679 0.70981,1.8283 0.70981,7.18414 l 0,13.42186 -4.00075,0 0,-13.91658 q 0,-3.46301 -0.34415,-4.55999 -0.32264,-1.11849 -1.226036,-1.8283 -0.881886,-0.70981 -1.935846,-0.70981 -2.107921,0 -4.538484,2.00037 -2.409052,2.00038 -3.979238,5.01169 l 0,14.00262 -4.000749,0 z"
         style="fill:#241c1c"
         id="path3383"
         inkscape:connector-curvature="0" />
      <path
         d="m 132.2306,440.54769 q -4.02225,1.35509 -7.65734,1.35509 -3.61358,0 -6.43131,-1.65622 -2.79623,-1.67773 -4.36641,-4.51697 -1.57019,-2.86075 -1.57019,-6.49584 0,-5.46339 3.54905,-9.07697 3.57056,-3.61358 8.60376,-3.61358 3.72113,0 7.87244,1.39811 l 0,3.85019 q -4.19433,-1.91434 -7.50678,-1.91434 -2.19396,0 -4.1298,1.09698 -1.93585,1.07547 -2.98981,3.37697 -1.05396,2.30151 -1.05396,4.73207 0,3.24792 2.02188,6.19471 2.0434,2.94679 6.3883,2.94679 1.31207,0 2.58112,-0.17208 1.26906,-0.19358 4.68905,-1.35509 l 0,3.85018 z"
         style="fill:#241c1c"
         id="path3385"
         inkscape:connector-curvature="0" />
      <path
         d="m 144.96417,441.23599 0,-31.3607 -7.18414,0 0,-3.35547 11.18489,0 0,31.38222 7.50678,0 0,3.33395 -11.50753,0 z"
         style="fill:#241c1c"
         id="path3387"
         inkscape:connector-curvature="0" />
      <path
         d="m 184.77807,417.20999 0,24.026 -4.00075,0 0,-5.2698 q -1.93585,2.9683 -4.30188,4.45245 -2.36604,1.48414 -4.73207,1.48414 -2.10792,0 -3.87169,-1.11848 -1.74226,-1.14 -2.43056,-2.9683 -0.6883,-1.84981 -0.6883,-7.18414 l 0,-13.42187 4.00074,0 0,13.91658 q 0,3.46302 0.32264,4.58151 0.34416,1.09698 1.22604,1.80679 0.9034,0.70981 1.93585,0.70981 2.10792,0 4.51697,-1.97887 2.43056,-2.00037 4.02226,-5.0332 l 0,-14.00262 4.00075,0 z"
         style="fill:#241c1c"
         id="path3389"
         inkscape:connector-curvature="0" />
      <path
         d="m 207.55651,435.83713 q -1.8283,3.01132 -4.40942,4.53849 -2.55962,1.52716 -4.71056,1.52716 -3.01132,0 -5.42037,-2.60263 -2.38754,-2.60264 -2.38754,-7.89395 0,-4.17283 1.59169,-7.44226 1.5917,-3.29093 4.25886,-5.18376 2.66717,-1.91434 6.60339,-1.91434 1.14,0 3.4415,0.23661 0.34415,0.043 1.03245,0.10754 l 0,-10.69017 4.02226,0 0,34.71617 -4.02226,0 0,-5.39886 z m 0,-4.75357 0,-10.30301 q -2.12943,-0.55924 -3.95773,-0.55924 -3.69961,0 -6.17319,2.86075 -2.45208,2.86075 -2.45208,7.7864 0,3.57056 1.33359,5.39886 1.35509,1.80679 3.07584,1.80679 1.87132,0 4.12981,-1.89283 2.25848,-1.89282 4.04376,-5.09772 z"
         style="fill:#241c1c"
         id="path3391"
         inkscape:connector-curvature="0" />
      <path
         d="m 237.90628,439.6443 q -4.7966,2.27999 -9.07697,2.27999 -3.24792,0 -5.80754,-1.6132 -2.55962,-1.61321 -4.10829,-4.60301 -1.52717,-3.01132 -1.52717,-6.43131 0,-3.29094 1.46264,-6.32377 1.46264,-3.03282 4.08678,-4.71056 2.62415,-1.69924 5.85056,-1.69924 4.28037,0 6.8615,3.05434 2.60264,3.05433 2.60264,9.42111 l 0,0.86038 -16.56224,0 q 0,2.49509 1.03245,4.55999 1.05396,2.0649 2.7532,3.09736 1.69925,1.03245 3.8717,1.03245 3.87169,0 8.56074,-2.58113 l 0,3.6566 z m -15.98149,-12.75508 11.98074,0 0,-0.58075 q 0,-2.94679 -1.44113,-4.68905 -1.44113,-1.74226 -3.85018,-1.74226 -2.43057,0 -4.21585,1.78528 -1.76377,1.76377 -2.47358,5.22678 z"
         style="fill:#241c1c"
         id="path3393"
         inkscape:connector-curvature="0" />
      <path
         d="m 268.94434,429.55639 23.35921,-11.67961 0,3.72113 -15.95997,7.93697 15.95997,8.02301 0,3.6781 -23.35921,-11.6796 z"
         style="fill:#ff0066;fill-opacity:1"
         id="path3395"
         inkscape:connector-curvature="0" />
      <path
         d="m 307.059,441.90278 q -5.16226,0 -8.25961,-3.59207 -3.09735,-3.61358 -3.09735,-9.09847 0,-5.4849 3.09735,-9.07697 3.09735,-3.59207 8.25961,-3.59207 5.14075,0 8.2381,3.59207 3.09735,3.59207 3.09735,9.07697 0,5.48489 -3.09735,9.09847 -3.09735,3.59207 -8.2381,3.59207 z m 0,-3.33395 q 3.2049,0 5.09773,-2.49509 1.89282,-2.49509 1.89282,-6.8615 0,-4.3449 -1.89282,-6.83999 -1.89283,-2.49509 -5.09773,-2.49509 -3.22641,0 -5.11924,2.49509 -1.89282,2.49509 -1.89282,6.83999 0,4.36641 1.89282,6.8615 1.89283,2.49509 5.11924,2.49509 z"
         style="fill:#ff0066;fill-opacity:1"
         id="path3397"
         inkscape:connector-curvature="0" />
      <path
         d="m 323.94387,439.96694 0,-4.23735 q 2.40905,1.57018 5.09773,2.21546 2.68867,0.62378 4.55999,0.62378 3.03283,0 4.36641,-0.96793 1.33358,-0.98943 1.33358,-2.45207 0,-0.96792 -0.62377,-1.65622 -0.62377,-0.6883 -3.09735,-1.69924 l -1.37661,-0.55925 -2.77471,-1.09698 q -4.47395,-1.74226 -5.63546,-3.22641 -1.18302,-1.46264 -1.18302,-3.57056 0,-2.9683 2.28,-4.88263 2.3015,-1.91434 7.44225,-1.91434 3.85018,0 7.29169,1.11849 l 0,3.63509 q -3.95773,-1.41962 -7.44225,-1.41962 -2.53811,0 -3.97924,0.90339 -1.41962,0.88189 -1.41962,2.21547 0,1.29057 1.24754,2.0649 1.22604,0.77434 4.00075,1.78528 l 2.71018,0.98944 q 3.72113,1.35509 5.22679,2.94678 1.50566,1.5917 1.50566,3.97924 0,3.11887 -2.40906,5.14075 -2.38754,2.00037 -7.65734,2.00037 -4.60301,0 -9.46414,-1.93584 z"
         style="fill:#ff0066;fill-opacity:1"
         id="path3399"
         inkscape:connector-curvature="0" />
      <path
         d="m 371.54418,429.55639 -23.35921,11.6796 0,-3.72112 15.98149,-7.93697 -15.98149,-8.02301 0,-3.67811 23.35921,11.67961 z"
         style="fill:#ff0066;fill-opacity:1"
         id="path3401"
         inkscape:connector-curvature="0" />
      <path
         d="m 404.13092,442.24693 -3.93622,0 21.22978,-35.38296 3.80717,0 -21.10073,35.38296 z"
         style="fill:#6c6753"
         id="path3403"
         inkscape:connector-curvature="0" />
      <path
         d="m 430.54447,442.24693 -3.93622,0 21.22978,-35.38296 3.80716,0 -21.10072,35.38296 z"
         style="fill:#6c6753"
         id="path3405"
         inkscape:connector-curvature="0" />
      <path
         d="m 501.46096,437.55789 0,3.6781 -18.02488,0 0,-33.38259 4.3449,0 0,29.70449 13.67998,0 z"
         style="fill:#6c6753"
         id="path3407"
         inkscape:connector-curvature="0" />
      <path
         d="m 515.2915,441.23599 0,-20.69204 -6.66792,0 0,-3.33396 10.66867,0 0,20.69205 6.68942,0 0,3.33395 -10.69017,0 z m -0.66679,-32.69429 q 0,-1.35509 0.9249,-2.02188 0.9249,-0.66679 1.74226,-0.66679 0.83887,0 1.76377,0.66679 0.92491,0.66679 0.92491,2.02188 0,1.33359 -0.92491,2.00038 -0.9249,0.66679 -1.76377,0.66679 -0.81736,0 -1.74226,-0.66679 -0.9249,-0.66679 -0.9249,-2.00038 z"
         style="fill:#6c6753"
         id="path3409"
         inkscape:connector-curvature="0" />
      <path
         d="m 555.06238,440.26807 q -2.81773,1.18302 -4.08679,1.39811 -1.26905,0.2366 -2.45207,0.2366 -2.5166,0 -4.60301,-0.96792 -2.08641,-0.96792 -3.16188,-2.86075 -1.05396,-1.89283 -1.05396,-5.85056 l 0,-9.67923 -6.00113,0 0,-3.33395 6.00113,0 0,-9.67923 4.00074,0 0,9.67923 10.69018,0 0,3.33395 -10.69018,0 0,9.61471 q 0,2.90376 0.68831,4.10829 0.6883,1.18302 1.82829,1.74226 1.16151,0.55925 2.7317,0.55925 2.90377,0 6.10867,-1.8283 l 0,3.52754 z"
         style="fill:#6c6753"
         id="path3411"
         inkscape:connector-curvature="0" />
      <path
         d="m 581.4544,439.6443 q -4.79659,2.27999 -9.07696,2.27999 -3.24792,0 -5.80754,-1.6132 -2.55962,-1.61321 -4.1083,-4.60301 -1.52716,-3.01132 -1.52716,-6.43131 0,-3.29094 1.46264,-6.32377 1.46263,-3.03282 4.08678,-4.71056 2.62415,-1.69924 5.85056,-1.69924 4.28037,0 6.8615,3.05434 2.60263,3.05433 2.60263,9.42111 l 0,0.86038 -16.56223,0 q 0,2.49509 1.03245,4.55999 1.05396,2.0649 2.7532,3.09736 1.69924,1.03245 3.87169,1.03245 3.87169,0 8.56074,-2.58113 l 0,3.6566 z m -15.98148,-12.75508 11.98073,0 0,-0.58075 q 0,-2.94679 -1.44112,-4.68905 -1.44113,-1.74226 -3.85019,-1.74226 -2.43056,0 -4.21584,1.78528 -1.76377,1.76377 -2.47358,5.22678 z"
         style="fill:#6c6753"
         id="path3413"
         inkscape:connector-curvature="0" />
      <path
         d="m 589.92914,441.23599 0,-24.026 4.00075,0 0,5.2483 q 1.87131,-2.9683 4.28037,-4.43094 2.43056,-1.48415 5.39886,-1.48415 2.17245,0 4.3449,0.66679 l 0,8.66829 -3.85019,0 0,-5.4849 q -1.01094,-0.17207 -1.59169,-0.17207 -2.23698,0 -4.38792,1.76377 -2.15094,1.76377 -4.19433,5.29131 l 0,13.9596 -4.00075,0 z"
         style="fill:#6c6753"
         id="path3415"
         inkscape:connector-curvature="0" />
      <path
         d="m 630.08716,435.83713 q -1.8283,3.01132 -4.40943,4.53849 -2.55962,1.52716 -4.71056,1.52716 -3.01131,0 -5.42037,-2.60263 -2.38754,-2.60264 -2.38754,-7.89395 0,-4.17283 1.5917,-7.44226 1.59169,-3.29093 4.25886,-5.18376 2.66716,-1.91434 6.60338,-1.91434 1.14,0 3.44151,0.23661 0.34415,0.043 1.03245,0.10754 l 4.02226,0 0,16.97092 q 0,4.3449 0.90339,7.05508 l -4.17282,0 q -0.47321,-1.97886 -0.75283,-5.39886 z m 0,-4.75357 0,-10.30301 q -2.12943,-0.55924 -3.95773,-0.55924 -3.69962,0 -6.1732,2.86075 -2.45207,2.86075 -2.45207,7.7864 0,3.57056 1.33358,5.39886 1.35509,1.80679 3.07585,1.80679 1.87131,0 4.1298,-1.89283 2.25849,-1.89282 4.04377,-5.09772 z"
         style="fill:#6c6753"
         id="path3417"
         inkscape:connector-curvature="0" />
      <path
         d="m 647.16565,441.23599 0,-31.3607 -7.18414,0 0,-3.35547 11.18489,0 0,31.38222 7.50678,0 0,3.33395 -11.50753,0 z"
         style="fill:#6c6753"
         id="path3419"
         inkscape:connector-curvature="0" />
      <path
         d="m 673.66523,441.23599 0,-31.3607 -7.18414,0 0,-3.35547 11.18488,0 0,31.38222 7.50678,0 0,3.33395 -11.50752,0 z"
         style="fill:#6c6753"
         id="path3421"
         inkscape:connector-curvature="0" />
      <path
         d="m 702.55234,440.26807 -11.09885,-23.05808 4.40943,0 8.84036,18.02488 7.39923,-18.02488 4.02226,0 -9.31357,22.32676 q -2.94679,7.07659 -5.61395,9.39961 -2.64566,2.32301 -6.8615,2.32301 -1.8283,0 -3.26943,-0.32264 l 0,-3.52754 q 1.65623,0.51623 3.16188,0.51623 1.93585,0 3.44151,-0.75283 1.50566,-0.75283 2.7532,-2.66717 1.24755,-1.91434 1.76377,-3.31245 l 0.36566,-0.9249 z"
         style="fill:#6c6753"
         id="path3423"
         inkscape:connector-curvature="0" />
    </g>
  </g>
</svg>
