<svg xmlns="http://www.w3.org/2000/svg" viewBox="0 0 400 130"><defs><style>.cls-1{isolation:isolate;}.cls-2,.cls-6,.cls-7{fill:#0ad;}.cls-2,.cls-6{opacity:0.7;}.cls-3{fill:#03addd;}.cls-3,.cls-7{opacity:0.9;}.cls-4,.cls-5{fill:#fff;}.cls-4{opacity:0.5;}.cls-6,.cls-7{mix-blend-mode:overlay;}.cls-8{fill:#1d1d1b;}</style></defs><title>Artboard 1</title><g class="cls-1"><g id="Layer_1" data-name="Layer 1"><polygon class="cls-2" points="57.98 0.67 2.76 32.44 57.98 64.61 113.21 32.44 57.98 0.67"/><polygon class="cls-3" points="57.98 64.68 2.76 96.45 57.98 128.63 113.21 96.45 57.98 64.68"/><polygon class="cls-4" points="57.98 100.21 27.23 82.3 27.23 46.69 57.98 64.61 57.98 100.21"/><polygon class="cls-4" points="88.74 82.3 57.98 100.21 57.98 64.61 88.74 46.69 88.74 82.3"/><polygon class="cls-5" points="57.98 29.02 27.23 46.71 57.98 64.63 88.74 46.71 57.98 29.02"/><polygon class="cls-6" points="113.21 96.34 57.98 128.52 57.98 64.57 113.21 32.4 113.21 96.34"/><polygon class="cls-7" points="57.98 128.52 2.76 96.34 2.76 32.4 57.98 64.57 57.98 128.52"/><path class="cls-8" d="M130.86,42.78h6.55v5.6h-6.55Zm.18,10.5h6.14l.06,29.44H131Z"/><path class="cls-8" d="M152.46,53.31a32.66,32.66,0,0,1,7.22-.86q6.14,0,9.06,2.6t2.92,8.08V82.71h-6.14V64q0-6.19-7-6.19a18.29,18.29,0,0,0-6.37,1.12V82.71h-6.14V55.52A27.11,27.11,0,0,1,152.46,53.31Z"/><path class="cls-8" d="M182.92,79.71q-4.12-3.6-4.12-11.62,0-8.26,4.06-11.95a14.77,14.77,0,0,1,10.32-3.69,23.27,23.27,0,0,1,9,1.77v5.54a21,21,0,0,0-8.13-1.89q-4.62,0-6.9,2.33t-2.28,7.4q0,5.31,2.22,7.76t7.13,2.45a18.31,18.31,0,0,0,8-1.95v5.54a21.74,21.74,0,0,1-9,1.89A15.12,15.12,0,0,1,182.92,79.71Z"/><path class="cls-8" d="M209.32,82.71V41.89h6.08V82.71Z"/><path class="cls-8" d="M227.47,80.56q-3.42-3-3.42-8.88V53.1h6.14V70.8q0,3.78,1.67,5.57t5.17,1.8q3.51,0,5.17-1.8t1.67-5.57V53.1h5.9V71.68q0,5.84-3.33,8.88t-9.41,3Q230.89,83.6,227.47,80.56Z"/><path class="cls-8" d="M284,40.71V76.46a5,5,0,0,1-1.93,4,12.23,12.23,0,0,1-4.85,2.39,23.66,23.66,0,0,1-6,.77A15,15,0,0,1,260.94,80q-4-3.57-4-12.48,0-7.14,3.45-11.15t10.23-4a19.06,19.06,0,0,1,3.65.41A14.51,14.51,0,0,1,277.95,54V40.71Zm-6.08,18.7a12,12,0,0,0-3.13-1.27,13.51,13.51,0,0,0-3.36-.44q-8.3,0-8.3,10,0,5,1.87,7.76t6.55,2.8a13.73,13.73,0,0,0,4.53-.65q1.84-.65,1.84-1.71Z"/><path class="cls-8" d="M314.81,56.85q3.19,4.45,3.13,12.48H297.36A10,10,0,0,0,299.9,76a8.61,8.61,0,0,0,6.4,2.27,19.22,19.22,0,0,0,5.14-.68,19,19,0,0,0,4.33-1.74v5.78a25.78,25.78,0,0,1-10.46,2q-6.61,0-10.38-4t-3.77-11.47q0-7.61,3.57-11.65t10.06-4Q311.62,52.39,314.81,56.85Zm-15.05,2.27q-1.75,1.65-2.28,5.6h14.21a9.16,9.16,0,0,0-2.1-5.52,6.63,6.63,0,0,0-5-1.74A6.8,6.8,0,0,0,299.76,59.12Z"/><path class="cls-8" d="M333.28,78.2q-4.41-5.1-4.41-15.13t4.41-15.13q4.41-5.1,13.07-5.1t13.12,5.1q4.41,5.1,4.41,15.13T359.47,78.2q-4.41,5.1-13.12,5.1T333.28,78.2Zm23.12-2.8q3.16-3.89,3.16-12.33t-3.16-12.3q-3.16-3.92-10.06-3.92t-10,3.92q-3.16,3.92-3.16,12.3t3.16,12.33q3.16,3.89,10,3.89T356.4,75.4Z"/><path class="cls-8" d="M377,82.54a35.34,35.34,0,0,1-5.79-2.6v-4.6a17.22,17.22,0,0,0,5.29,2.92,20.8,20.8,0,0,0,7.1,1.15q4.27,0,6.37-1.83a6.23,6.23,0,0,0,2.1-5,5.82,5.82,0,0,0-1.23-3.8,9,9,0,0,0-2.92-2.36q-1.7-.85-5.09-2.15A41.9,41.9,0,0,1,377.07,62a10.24,10.24,0,0,1-3.65-3.3,9.92,9.92,0,0,1-1.52-5.78,10.1,10.1,0,0,1,1.2-4.72A9.57,9.57,0,0,1,377,44.31a13.64,13.64,0,0,1,6.87-1.53,18,18,0,0,1,5.06.59,35.61,35.61,0,0,1,5.17,2.18v4.37l-2.19-1.27a14.19,14.19,0,0,0-3.68-1.5,17.1,17.1,0,0,0-4.12-.47q-4,0-6,1.68a5.36,5.36,0,0,0-1.93,4.22,6.2,6.2,0,0,0,1,3.72,7.58,7.58,0,0,0,2.75,2.3,37.07,37.07,0,0,0,4.88,1.95A43.19,43.19,0,0,1,390.75,63a11.43,11.43,0,0,1,3.95,3.45,9.46,9.46,0,0,1,1.64,5.72,11.08,11.08,0,0,1-3.07,7.9q-3.07,3.24-9.85,3.24A21.78,21.78,0,0,1,377,82.54Z"/></g></g></svg>