<?xml version="1.0" encoding="UTF-8" standalone="no"?>
<!-- Created with Inkscape (http://www.inkscape.org/) -->

<svg
   xmlns:dc="http://purl.org/dc/elements/1.1/"
   xmlns:cc="http://creativecommons.org/ns#"
   xmlns:rdf="http://www.w3.org/1999/02/22-rdf-syntax-ns#"
   xmlns:svg="http://www.w3.org/2000/svg"
   xmlns="http://www.w3.org/2000/svg"
   xmlns:sodipodi="http://sodipodi.sourceforge.net/DTD/sodipodi-0.dtd"
   xmlns:inkscape="http://www.inkscape.org/namespaces/inkscape"
   id="svg3355"
   version="1.1"
   inkscape:version="0.91 r13725"
   xml:space="preserve"
   width="636.94495"
   height="134.04837"
   viewBox="0 0 636.94494 134.04837"
   sodipodi:docname="Powered_By_IncludeOS.ai.svg"><metadata
     id="metadata3361"><rdf:RDF><cc:Work
         rdf:about=""><dc:format>image/svg+xml</dc:format><dc:type
           rdf:resource="http://purl.org/dc/dcmitype/StillImage" /><dc:title></dc:title></cc:Work></rdf:RDF></metadata><defs
     id="defs3359"><clipPath
       clipPathUnits="userSpaceOnUse"
       id="clipPath3369"><path
         d="m 0,500 887.447,0 0,-500 L 0,0 0,500 Z"
         id="path3371"
         inkscape:connector-curvature="0" /></clipPath></defs><sodipodi:namedview
     pagecolor="#ffffff"
     bordercolor="#666666"
     borderopacity="1"
     objecttolerance="10"
     gridtolerance="10"
     guidetolerance="10"
     inkscape:pageopacity="0"
     inkscape:pageshadow="2"
     inkscape:window-width="2460"
     inkscape:window-height="1379"
     id="namedview3357"
     showgrid="false"
     inkscape:snap-text-baseline="true"
     inkscape:zoom="1.2072"
     inkscape:cx="249.12846"
     inkscape:cy="95.740548"
     inkscape:window-x="500"
     inkscape:window-y="26"
     inkscape:window-maximized="0"
     inkscape:current-layer="g3363"
     fit-margin-top="0"
     fit-margin-left="0"
     fit-margin-right="0"
     fit-margin-bottom="0" /><g
     id="g3363"
     inkscape:groupmode="layer"
     inkscape:label="Ny logo"
     transform="matrix(1.25,0,0,-1.25,-212.60425,393.22388)"><g
       id="g3365"><g
         id="g3367"
         clip-path="url(#clipPath3369)"><path
           d="m 300.321,273.362 9.287,0 0,-44.826 -9.287,0 0,44.826 z m 4.739,8.719 c -3.127,0 -5.686,2.464 -5.686,5.591 0,3.127 2.464,5.591 5.591,5.591 3.033,0 5.497,-2.464 5.497,-5.591 0,-3.033 -2.37,-5.591 -5.402,-5.591"
           style="fill:#232323;fill-opacity:1;fill-rule:nonzero;stroke:none"
           id="path3373"
           inkscape:connector-curvature="0" /><g
           id="g3375"
           transform="translate(350.2649,228.5356)"><path
             d="m 0,0 0,27.294 c 0,6.16 0,10.519 -6.823,10.519 -3.317,0 -7.393,-0.758 -11.468,-2.18 l 0,-35.633 -9.287,0 0,44.826 8.814,0 0,-3.791 c 6.539,3.317 11.562,4.833 15.826,4.833 4.549,0 8.056,-1.705 10.046,-4.643 1.8,-2.654 2.179,-4.833 2.179,-11.941 L 9.287,0 0,0 Z"
             style="fill:#232323;fill-opacity:1;fill-rule:nonzero;stroke:none"
             id="path3377"
             inkscape:connector-curvature="0" /></g><g
           id="g3379"
           transform="translate(387.0361,227.4934)"><path
             d="m 0,0 c -10.804,0 -17.817,8.055 -17.817,23.029 0,14.689 7.771,23.882 19.049,23.882 3.696,0 8.624,-0.853 14.879,-3.033 l -1.422,-5.875 c -5.117,1.137 -7.297,1.421 -10.804,1.421 -7.865,0 -11.846,-5.307 -11.846,-16.111 0,-10.235 3.981,-15.447 11.183,-15.447 3.128,0 7.392,0.852 12.036,2.274 l 1.8,-5.496 C 10.14,1.611 4.454,0 0,0"
             style="fill:#232323;fill-opacity:1;fill-rule:nonzero;stroke:none"
             id="path3381"
             inkscape:connector-curvature="0" /></g><path
           d="m 412.056,295.822 9.287,0 0,-67.287 -9.287,0 0,67.287 z"
           style="fill:#232323;fill-opacity:1;fill-rule:nonzero;stroke:none"
           id="path3383"
           inkscape:connector-curvature="0" /><g
           id="g3385"
           transform="translate(461.904,228.5356)"><path
             d="m 0,0 0,3.791 c -6.539,-3.317 -11.656,-4.833 -15.637,-4.833 -4.833,0 -8.15,1.611 -10.14,4.454 -1.896,2.748 -2.275,5.402 -2.275,11.846 l 0,29.568 9.288,0 0,-27.293 c 0,-6.161 0,-10.52 6.823,-10.52 3.317,0 7.392,0.758 11.467,2.179 l 0,35.634 9.288,0 L 8.814,0 0,0 Z"
             style="fill:#232323;fill-opacity:1;fill-rule:nonzero;stroke:none"
             id="path3387"
             inkscape:connector-curvature="0" /></g><g
           id="g3389"
           transform="translate(510.7111,263.885)"><path
             d="m 0,0 c -5.686,1.99 -7.487,2.464 -10.235,2.464 -6.255,0 -9.667,-5.118 -9.667,-15.163 0,-10.804 3.128,-15.732 9.288,-15.732 2.558,0 5.117,0.569 10.614,2.654 L 0,0 Z m 0.474,-35.349 0,4.074 c -5.307,-3.032 -10.425,-5.117 -14.879,-5.117 -9.667,0 -15.353,8.814 -15.353,23.313 0,14.311 6.539,23.598 16.396,23.598 4.832,0 9.381,-2.558 13.362,-4.928 l 0,26.346 9.287,0 0,-67.286 -8.813,0 z"
             style="fill:#232323;fill-opacity:1;fill-rule:nonzero;stroke:none"
             id="path3391"
             inkscape:connector-curvature="0" /></g><g
           id="g3393"
           transform="translate(550.7986,267.8653)"><path
             d="m 0,0 c -6.065,0 -9.667,-4.36 -10.425,-12.699 l 18.954,0.758 C 8.34,-3.791 5.686,0 0,0 m -10.709,-18.101 0,-1.517 c 0,-9.003 3.791,-13.078 10.804,-13.078 4.075,0 7.771,0.758 15.068,3.128 l 1.706,-5.497 c -9.287,-4.075 -13.836,-5.307 -19.238,-5.307 -10.993,0 -18.196,8.15 -18.196,21.986 0,15.069 7.392,24.925 19.807,24.925 12.036,0 18.101,-7.297 18.101,-22.555 l 0,-2.085 -28.052,0 z"
             style="fill:#232323;fill-opacity:1;fill-rule:nonzero;stroke:none"
             id="path3395"
             inkscape:connector-curvature="0" /></g><g
           id="g3397"
           transform="translate(626.7462,256.3131)"><path
             d="m 0,0 c -0.004,-0.307 -0.008,-0.613 -0.008,-0.92 0.036,-4.65 -0.299,-8.376 -1.054,-11.72 -1.072,-4.742 -2.693,-8.012 -5.255,-10.603 -2.188,-2.212 -4.986,-3.6 -8.317,-4.126 -1.177,-0.187 -2.359,-0.281 -3.512,-0.281 -2.183,0 -4.347,0.337 -6.431,1.002 -4.511,1.439 -7.668,4.537 -9.385,9.21 -2.134,5.809 -2.996,12.366 -2.634,20.047 0.185,3.922 0.723,7.286 1.645,10.284 1.429,4.646 3.547,7.876 6.667,10.164 1.852,1.359 4.024,2.265 6.454,2.694 2.753,0.485 5.48,0.453 8.074,-0.095 4.88,-1.036 8.492,-4 10.736,-8.81 C -0.743,11.962 -0.229,6.843 -0.014,2.038 0.016,1.354 0.008,0.665 0,0 m 6.263,7.184 c -0.346,3.062 -1.12,6.114 -2.301,9.069 -1.344,3.364 -3.11,6.094 -5.4,8.347 -2.955,2.907 -6.662,4.808 -11.017,5.651 -1.929,0.372 -3.875,0.561 -5.785,0.561 -2.292,0 -4.601,-0.272 -6.864,-0.808 -3.088,-0.733 -5.855,-2.032 -8.225,-3.861 -3.359,-2.592 -5.834,-6.08 -7.566,-10.664 -1.422,-3.765 -2.231,-7.902 -2.474,-12.65 -0.308,-6.051 0.1,-11.324 1.249,-16.118 1.275,-5.32 3.282,-9.287 6.317,-12.485 1.944,-2.047 4.296,-3.637 6.992,-4.724 2.555,-1.031 5.432,-1.622 8.795,-1.807 3.635,-0.197 7.143,0.219 10.436,1.247 4.065,1.267 7.445,3.583 10.044,6.884 2.599,3.3 4.362,7.39 5.39,12.502 0.738,3.667 0.979,7.455 1.115,10.682 C 6.899,-0.16 6.835,0.671 6.771,1.501 6.626,3.368 6.477,5.298 6.263,7.184"
             style="fill:#232323;fill-opacity:1;fill-rule:nonzero;stroke:none"
             id="path3399"
             inkscape:connector-curvature="0" /></g><g
           id="g3401"
           transform="translate(678.26,249.7169)"><path
             d="m 0,0 c -0.972,2.326 -2.749,4.128 -5.764,5.84 -3.415,1.94 -7.269,3.149 -10.668,4.217 -2.782,0.873 -5.658,1.776 -8.353,3.183 -2.875,1.501 -4.305,3.593 -4.371,6.393 -0.022,0.926 -0.032,2.148 0.085,3.383 0.19,1.995 0.944,3.778 2.243,5.3 1.942,2.279 4.568,3.542 8.027,3.863 0.818,0.076 1.675,0.114 2.547,0.114 3.459,0 6.922,-0.599 9.978,-1.128 0.96,-0.167 1.916,-0.353 2.887,-0.542 l 0.762,-0.148 1.015,4.288 c -4.993,1.368 -9.256,2.118 -13.394,2.358 -0.759,0.044 -1.496,0.066 -2.19,0.066 -3.263,0 -6.07,-0.495 -8.584,-1.512 -3.724,-1.508 -6.333,-3.88 -7.976,-7.252 -1.471,-3.018 -1.978,-6.304 -1.549,-10.044 0.44,-3.84 2.263,-6.946 5.42,-9.231 2.725,-1.972 5.816,-3.164 9.007,-4.309 0.887,-0.318 1.779,-0.624 2.67,-0.93 2.684,-0.921 5.46,-1.873 8.076,-3.173 3.131,-1.555 4.806,-3.794 5.122,-6.844 0.221,-2.137 0.286,-4.924 -1.181,-7.526 -2.037,-3.61 -5.413,-5.709 -10.321,-6.417 -1.145,-0.166 -2.308,-0.246 -3.555,-0.246 -3.277,0 -6.568,0.585 -9.395,1.134 -1.038,0.201 -2.079,0.445 -3.086,0.68 -0.716,0.167 -1.432,0.334 -2.151,0.488 -0.347,-1.161 -0.673,-2.329 -0.998,-3.498 l -0.281,-1.003 c 0.832,-0.2 1.634,-0.4 2.435,-0.599 1.939,-0.484 3.945,-0.984 5.93,-1.339 1.871,-0.335 3.829,-0.467 5.722,-0.595 l 1.131,-0.078 c 4.179,-0.3 8.02,0.244 11.466,1.623 5.021,2.01 8.325,5.511 9.82,10.408 0.878,2.876 1.08,5.899 0.599,8.987 C 0.896,-2.617 0.518,-1.241 0,0"
             style="fill:#232323;fill-opacity:1;fill-rule:nonzero;stroke:none"
             id="path3403"
             inkscape:connector-curvature="0" /></g><g
           id="g3405"
           transform="translate(217.2184,289.0081)"><path
             d="m 0,0 22.812,-13.586 1.636,0.96 0,-0.133 2.207,1.282 18.93,11.099 L -0.002,25.571 -45.611,-0.593 -23.128,-13.595 0,0 Z"
             style="fill:#5b89ec;fill-opacity:1;fill-rule:nonzero;stroke:none"
             id="path3407"
             inkscape:connector-curvature="0" /></g><g
           id="g3409"
           transform="translate(192.5344,246.4564)"><path
             d="m 0,0 0,26.274 -22.451,13.052 0,-51.467 45.611,-26.975 0,23.772 0,1.785 L 0,0 Z"
             style="fill:#6a36f9;fill-opacity:1;fill-rule:nonzero;stroke:none"
             id="path3411"
             inkscape:connector-curvature="0" /></g><g
           id="g3413"
           transform="translate(243.1443,273.5678)"><path
             d="m 0,0 -1.478,-0.857 0,-26.308 -22.935,-13.502 0,-1.781 0,-23.64 45.628,26.833 0,51.61 L 2.519,1.492 -0.013,0.008 0,0 Z"
             style="fill:#1f2ba3;fill-opacity:1;fill-rule:nonzero;stroke:none"
             id="path3415"
             inkscape:connector-curvature="0" /></g><g
           id="g3417"
           transform="translate(217.5787,262.2541)"><path
             d="M 0,0 19.462,11.415 -0.371,23.225 -20.468,11.412 -0.366,-0.213 0,0 Z"
             style="fill:#ffffff;fill-opacity:1;fill-rule:nonzero;stroke:none"
             id="path3419"
             inkscape:connector-curvature="0" /></g><g
           id="g3421"
           transform="translate(218.7316,236.4239)"><path
             d="m 0,0 19.898,11.714 0,22.799 L 0,22.847 0,0 Z"
             style="fill:#afb8c9;fill-opacity:1;fill-rule:nonzero;stroke:none"
             id="path3423"
             inkscape:connector-curvature="0" /></g><g
           id="g3425"
           transform="translate(195.5711,248.1972)"><path
             d="m 0,0 20.124,-11.781 0,22.851 L 0,22.768 0,0 Z"
             style="fill:#1f2ba3;fill-opacity:1;fill-rule:nonzero;stroke:none"
             id="path3427"
             inkscape:connector-curvature="0" /></g></g></g></g></svg>